<svg xmlns="http://www.w3.org/2000/svg" xmlns:xlink="http://www.w3.org/1999/xlink" width="100%" height="100%" version="1.1" viewBox="0 0 435 256" xml:space="preserve" style="fill-rule:evenodd;clip-rule:evenodd;stroke-linejoin:round;stroke-miterlimit:10"><g id="Artboard1" transform="matrix(0.893499,0,0,1,-34.959,-128.4)"><rect width="485.781" height="255.2" x="39.126" y="128.4" style="fill:none"/><clipPath id="_clip1"><rect width="485.781" height="255.2" x="39.126" y="128.4"/></clipPath><g clip-path="url(#_clip1)"><g><g><g transform="matrix(1.11919,0,0,1,-4.16044,20.9892) matrix(1,0,0,1,0,-20.0892)"><path id="svg_4" d="M295.802,226.195C295.726,226.543 295.636,226.984 295.574,227.276L292.945,239.582L295.711,226.617L295.802,226.195" style="fill:#5da3c2;fill-rule:nonzero"/><path id="svg_5" d="M217.02,234.431L215.568,239.573L217.02,234.433L217.02,234.431" style="fill:#5da3c2;fill-rule:nonzero"/><path id="svg_6" d="M133.132,219.333L243.533,335.448L190.73,219.333L133.132,219.333ZM205.287,219.333L255.835,334.237L306.383,219.333L205.287,219.333ZM374.878,219.333L320.94,219.333L268.28,335.448L374.878,219.333ZM211.57,206.009L302.227,206.009L256.899,158.664L211.57,206.009ZM334.854,154.614L268.834,154.614L314.068,201.862L334.854,154.614ZM176.816,154.614L198.271,203.385L244.966,154.614L176.816,154.614ZM375.017,206.009L345.969,162.438L326.802,206.009L375.017,206.009ZM137.348,206.009L184.868,206.009L166.129,163.411L137.348,206.009ZM163.588,147L348.228,147L393.912,215.526L254.956,364L116,217.43L163.588,147Z" style="fill:#fff;fill-rule:nonzero"/><path id="svg_7" d="M133.132,219.333L243.533,335.448L190.73,219.333L133.132,219.333ZM205.287,219.333L255.835,334.237L306.383,219.333L205.287,219.333ZM374.878,219.333L320.94,219.333L268.28,335.448L374.878,219.333ZM211.57,206.009L302.227,206.009L256.899,158.664L211.57,206.009ZM334.854,154.614L268.834,154.614L314.068,201.862L334.854,154.614ZM176.816,154.614L198.271,203.385L244.966,154.614L176.816,154.614ZM375.017,206.009L345.969,162.438L326.802,206.009L375.017,206.009ZM137.348,206.009L184.868,206.009L166.129,163.411L137.348,206.009ZM163.588,147L348.228,147L393.912,215.526L254.956,364L116,217.43L163.588,147Z" style="fill:none;fill-rule:nonzero;stroke:#fff;stroke-width:3px"/></g><g><text x="89.993" y="89.54" style="font-family:'HelveticaNeue','Helvetica Neue';font-size:275px;fill:#fff" transform="matrix(1.11919,0,0,1,-4.16044,20.9892) matrix(1,0,0,1,-64.3911,219.296)">{</text></g><g><text x="89.993" y="89.54" style="font-family:'HelveticaNeue','Helvetica Neue';font-size:275px;fill:#fff" transform="matrix(1.11919,0,0,1,-4.16044,20.9892) matrix(1,0,0,1,304.182,219.296)">}</text></g></g></g></g></g></svg>